<?xml version="1.0" encoding="UTF-8"?>
<svg id="Layer_1" xmlns="http://www.w3.org/2000/svg" viewBox="0 0 256 256">
  <defs>
    <style>
      .cls-1 {
        fill: #a3a5a8;
      }

      .cls-2 {
        fill: #fff;
      }
    </style>
  </defs>
  <g>
    <path class="cls-1" d="M125.09,200.61c-42.38,0-76.87-34.48-76.87-76.87,0-4.53,3.67-8.2,8.2-8.2s8.2,3.67,8.2,8.2c0,33.34,27.12,60.46,60.46,60.46s64.47-27.05,64.47-60.38c0-4.53-.34-8.28,4.2-8.28s8.2,3.67,8.2,8.2c0,42.38-34.48,76.86-76.86,76.86Z"/>
    <path class="cls-1" d="M125.09,173.54h0c-27.22,0-49.49-22.27-49.49-49.49v-61.77c0-27.22,22.27-49.49,49.49-49.49h0c27.22,0,49.49,22.27,49.49,49.49v61.77c0,27.22-22.27,49.5-49.49,49.5Z"/>
    <path class="cls-1" d="M125.09,248.9c-4.53,0-8.2-3.67-8.2-8.2v-46.21c0-4.53,3.67-8.2,8.2-8.2s8.2,3.67,8.2,8.2v46.21c0,4.53-3.67,8.2-8.2,8.2Z"/>
    <path class="cls-1" d="M152.75,250.99h-55.32c-4.53,0-8.2-3.67-8.2-8.2s3.67-8.2,8.2-8.2h55.32c4.53,0,8.2,3.67,8.2,8.2s-3.67,8.2-8.2,8.2Z"/>
  </g>
  <g>
    <path class="cls-2" d="M127.91,196.85c-42.38,0-76.87-34.48-76.87-76.87,0-4.53,3.67-8.2,8.2-8.2s8.2,3.67,8.2,8.2c0,33.34,27.12,60.46,60.46,60.46s60.46-27.12,60.46-60.46c0-4.53,3.67-8.2,8.2-8.2s8.2,3.67,8.2,8.2c0,42.38-34.48,76.86-76.86,76.86Z"/>
    <path class="cls-2" d="M127.91,169.77h0c-27.22,0-49.49-22.27-49.49-49.49v-61.77c0-27.22,22.27-49.49,49.49-49.49h0c27.22,0,49.49,22.27,49.49,49.49v61.77c0,27.22-22.27,49.5-49.49,49.5Z"/>
    <path class="cls-2" d="M127.91,245.14c-4.53,0-8.2-3.67-8.2-8.2v-46.21c0-4.53,3.67-8.2,8.2-8.2s8.2,3.67,8.2,8.2v46.21c0,4.53-3.67,8.2-8.2,8.2Z"/>
    <path class="cls-2" d="M155.58,247.22h-55.32c-4.53,0-8.2-3.67-8.2-8.2s3.67-8.2,8.2-8.2h55.32c4.53,0,8.2,3.67,8.2,8.2s-3.67,8.2-8.2,8.2Z"/>
  </g>
</svg>